<svg width="608" height="559" viewBox="0 0 608 559" fill="none" xmlns="http://www.w3.org/2000/svg">
<rect x="33" y="16" width="542" height="543" rx="90" fill="white"/>
<path d="M157.22 388.37L164.165 349.304C220.131 356.348 236.173 349.126 245.769 322.392C254.226 332.091 260.702 335.708 277.022 337.15C246.473 380.789 219.74 392.62 157.22 388.37Z" fill="#03162A"/>
<path d="M343.868 284.194C364.069 292.608 373.385 285.93 389.011 263.359C401.165 246.864 406.419 242.341 419.396 242.523H501L280.494 136.611C270.181 130.483 257.209 130.573 225.802 131.403C211.044 131.792 204.967 132.271 193.681 148.765L181.527 173.073C176.538 196.013 180.319 203.806 195.418 211.271L343.868 284.194Z" fill="#03162A"/>
<circle cx="356.022" cy="253.809" r="12.1538" fill="#1FDB6A"/>
<path d="M122.494 317.182C151.189 315.715 160.181 319.175 158.088 336.282L145.066 399.655C140.769 413.48 131.079 415.426 106 412.678L122.494 317.182ZM441.967 257.282C454.246 258.183 455.219 264.624 448.044 285.062L437.626 317.182C431.13 333.523 425.26 339.755 408.979 343.226H386.406C369.424 340.061 366.949 332.986 372.517 312.843L381.198 285.931C389.011 263.359 398.805 259.558 409.847 257.282H441.967ZM342.132 297.216C353.006 299.917 357.914 299.096 365.571 295.479C361.653 304.559 359.918 309.29 358.626 316.314C357.431 330.152 358.113 336.04 362.967 341.491L203.23 259.887C189.572 252.034 187.098 243.77 190.209 223.425L342.132 297.216ZM298.726 317.182C289.207 329.175 279.915 328.976 258.791 320.655C241.235 311.873 237.662 304.403 239.692 287.667L298.726 317.182ZM426.573 274.478C418.562 269.55 405.351 276.469 397.066 289.933C388.782 303.398 388.561 318.31 396.572 323.239C404.584 328.168 417.794 321.249 426.079 307.784C434.364 294.319 434.585 279.408 426.573 274.478ZM493.187 253.809C499.856 253.924 498.395 258.15 497.527 261.623C496.657 265.098 473.035 295.48 455.857 298.084C463.784 277.006 465.881 266.31 455.857 253.809H493.187Z" fill="#03162A"/>
</svg>
