<svg width="1155" height="560" viewBox="0 0 1155 560" fill="none" xmlns="http://www.w3.org/2000/svg">
<path d="M384.021 275.944H371.521L330.021 212.444H339.521L384.021 275.944Z" fill="#1FDB6A"/>
<path d="M175.021 226.944L181.521 212.444H204.021L201.521 219.944H250.021L249.021 212.444H270.521L276.021 226.944H175.021Z" fill="#1FDB6A"/>
<path d="M243.021 212.444H209.521V215.944H243.021V212.444Z" fill="#1FDB6A"/>
<path d="M131.021 211.944L85.5213 276.444H174.521C195.521 250.444 252.521 252.444 273.521 276.444H360.521L321.521 211.944H278.521L286.021 232.444H164.521L174.521 211.944H131.021Z" fill="#1FDB6A"/>
<path d="M155.521 391.444L144.521 433.944C108.521 432.444 86.0213 415.944 86.0213 415.944L112.021 358.944H286.021L279.021 391.444H155.521Z" fill="#1FDB6A"/>
<path d="M180.521 284.944C184.521 304.944 252.521 310.444 264.521 284.944H180.521Z" fill="#1FDB6A"/>
<path d="M180.521 284.944C184.521 304.944 252.521 310.444 264.521 284.944H180.521Z" fill="#1FDB6A"/>
<path d="M180.521 284.944C184.521 304.944 252.521 310.444 264.521 284.944H180.521Z" fill="#1FDB6A"/>
<path d="M263.021 277.144C259.086 259.427 193.866 258.696 183.8 277.383L263.021 277.144Z" fill="#1FDB6A"/>
<path d="M263.021 277.144C259.086 259.427 193.866 258.696 183.8 277.383L263.021 277.144Z" fill="#1FDB6A"/>
<path d="M263.021 277.144C259.086 259.427 193.866 258.696 183.8 277.383L263.021 277.144Z" fill="#1FDB6A"/>
<path d="M277.521 405.444L273.521 436.944H160.021L167.021 405.444H277.521Z" fill="#1FDB6A"/>
<path d="M320.021 284.944C294.021 302.944 291.021 336.444 288.521 346.944H104.521L73.5214 407.944C45.0214 387.444 37.0213 358.444 33.5214 348.944L78.0214 284.944H171.521C177.021 321.944 273.521 315.444 275.021 284.944L320.021 284.944Z" fill="#1FDB6A"/>
<path d="M29.0213 334.944C28.5052 328.592 28.4501 324.724 29.0213 316.944L112.521 212.444H122.021L29.0213 334.944Z" fill="#1FDB6A"/>
<path d="M478.521 275.444H440.021L480.521 72.4444L515.021 74.4444C519.521 74.9444 520.521 75.4444 522.021 78.9444L580.521 199.444L606.521 74.4444L647.521 72.4444L606.021 275.444H574.708C569.021 274.944 566.521 270.944 562.521 263.444L506.021 149.444L478.521 275.444Z" fill="#1FDB6A"/>
<path fill-rule="evenodd" clip-rule="evenodd" d="M749.521 129.944C789.521 132.944 781.521 170.944 781.521 170.944L760.021 274.444H662.021C661.93 274.439 638.016 272.907 635.521 253.444C633.021 233.944 637.521 186.445 687.521 186.444L739.021 185.444L740.021 167.944C740.021 163.944 737.021 161.944 733.021 161.944H665.021L671.521 129.944H749.521ZM694.021 216.444C676.021 215.945 673.968 231.007 675.021 236.944C676.074 242.882 687.173 242.444 687.173 242.444H727.021L731.521 216.444H694.021Z" fill="#1FDB6A"/>
<path fill-rule="evenodd" clip-rule="evenodd" d="M424.521 287.944C443.521 289.944 477.021 295.445 458.021 372.944C446.521 436.944 445.021 459.444 422.021 470.944L441.521 503.944H394.021L382.021 482.444C380.985 480.661 379.946 480.109 377.021 480.184C313.322 480.143 285.521 469.944 288.021 428.944C306.02 350.483 300.021 297.444 349.021 287.944H424.521ZM422.521 346.444C428.021 325.444 419.121 318.781 385.021 319.944C356.021 319.944 348.292 321.298 344.521 338.944L331.021 406.444C323.701 435.971 328.993 444.561 355.521 445.444C391.271 449.344 404.651 445.901 408.021 422.444L422.521 346.444Z" fill="white"/>
<path d="M617.521 333.944H579.521L557.521 443.944L511.021 443.444C511.021 443.444 508.521 443.944 507.021 442.444C505.521 440.944 506.021 438.444 506.021 438.444L527.021 333.944H487.021C487.021 333.944 476.021 399.944 467.521 434.944C459.021 469.944 482.021 474.944 487.021 475.944C492.021 476.944 589.521 475.944 589.521 475.944L617.521 333.944Z" fill="white"/>
<path fill-rule="evenodd" clip-rule="evenodd" d="M725.057 332.944C765.026 335.942 757.07 373.886 757.057 373.944L735.557 477.444H637.557C637.557 477.444 613.558 475.944 611.057 456.444C608.557 436.944 613.057 389.444 663.057 389.444L714.557 388.444L715.557 370.944C715.557 366.945 712.557 364.945 708.557 364.944H640.557L647.057 332.944H725.057ZM669.557 419.444C651.558 418.944 649.504 434.007 650.557 439.944C651.608 445.871 662.666 445.446 662.709 445.444H702.557L707.057 419.444H669.557Z" fill="white"/>
<path d="M881.521 475.944C786.021 478.944 761.021 481.444 761.021 433.944L774.521 367.944C792.021 318.444 856.021 334.444 871.021 338.944L883.021 275.944H922.521L881.521 475.944ZM863.521 369.944C829.833 361.332 817.266 362.223 811.021 378.444C811.012 378.486 803.794 410.583 799.634 431.507C797.328 443.1 812.039 445.468 826.521 445.444C838.167 445.425 850.014 443.926 850.071 443.919L863.521 369.944Z" fill="white"/>
<path d="M940.521 475.444H901.521L925.021 365.944C935.521 332.444 967.007 328.068 1024.52 336.444L1018.15 366.944C1012.21 366.636 964.521 356.944 961.151 375.944C961.151 375.944 949.021 432.444 940.521 475.444Z" fill="white"/>
<path fill-rule="evenodd" clip-rule="evenodd" d="M1122.06 332.944C1162.06 335.944 1154.06 373.944 1154.06 373.944L1132.56 477.444H1034.56C1034.49 477.44 1010.55 475.919 1008.06 456.444C1005.56 436.944 1010.06 389.445 1060.06 389.444L1111.56 388.444L1112.56 370.944C1112.56 366.944 1109.56 364.944 1105.56 364.944H1037.56L1044.06 332.944H1122.06ZM1066.56 419.444C1048.56 418.944 1046.5 434.007 1047.56 439.944C1048.61 445.882 1059.71 445.444 1059.71 445.444H1099.56L1104.06 419.444H1066.56Z" fill="white"/>
<path d="M276.021 449.444C277.229 459.632 279.561 464.934 287.521 473.444L140.521 470.444C51.5213 463.944 -6.13477 404.061 0.521325 315.444C0.521325 315.444 44.0214 80.4444 52.0213 47.9444C60.0213 15.4444 86.5213 1.44443 110.021 0.44444C133.521 -0.55555 310.521 0.44444 310.521 0.44444C380.308 12.6342 426.521 64.9444 413.521 138.944C400.521 212.944 388.521 271.444 388.521 271.444L370.521 244.944C370.521 244.944 380.021 202.444 390.021 144.444C400.021 86.4444 366.021 31.9444 295.521 21.4444H110.021C90.7473 23.717 79.0213 30.4444 73.0213 53.4444C67.0213 76.4444 23.5213 315.444 23.5213 315.444C18.0213 377.944 52.0213 435.944 153.021 449.444H276.021Z" fill="white"/>
<path d="M86.0213 192.444L90.0213 169.944C122.255 174.002 131.494 169.842 137.021 154.444C141.892 160.03 145.622 162.114 155.021 162.944C137.426 188.078 122.03 194.892 86.0213 192.444Z" fill="white"/>
<path d="M193.521 132.444C205.156 137.291 210.521 133.444 219.521 120.444C226.521 110.944 229.547 108.34 237.021 108.444H284.021L157.021 47.4444C151.081 43.9149 143.61 43.9667 125.521 44.4444C117.021 44.6689 113.521 44.9444 107.021 54.4444L100.021 68.4444C97.1475 81.6567 99.325 86.145 108.021 90.4444L193.521 132.444Z" fill="white"/>
<circle cx="200.521" cy="114.944" r="7" fill="#1FDB6A"/>
<path d="M66.0213 151.444C82.5483 150.599 87.7267 152.592 86.5213 162.444L79.0213 198.944C76.5462 206.907 70.9658 208.027 56.5213 206.444L66.0213 151.444ZM250.021 116.944C257.093 117.463 257.653 121.173 253.521 132.944L247.521 151.444C243.78 160.856 240.399 164.445 231.021 166.444H218.021C208.24 164.621 206.815 160.546 210.021 148.944L215.021 133.444C219.521 120.444 225.162 118.255 231.521 116.944H250.021ZM192.521 139.944C198.784 141.5 201.611 141.027 206.021 138.944C203.765 144.174 202.765 146.899 202.021 150.944C201.333 158.914 201.726 162.305 204.521 165.444L112.521 118.444C104.655 113.922 103.23 109.163 105.021 97.4444L192.521 139.944ZM167.521 151.444C162.039 158.351 156.688 158.237 144.521 153.444C134.41 148.386 132.352 144.084 133.521 134.444L167.521 151.444ZM241.155 126.849C236.541 124.01 228.932 127.995 224.161 135.75C219.389 143.505 219.262 152.094 223.876 154.933C228.49 157.772 236.099 153.786 240.871 146.031C245.642 138.276 245.769 129.688 241.155 126.849ZM279.521 114.944C283.363 115.01 282.521 117.444 282.021 119.444C281.521 121.444 267.915 138.945 258.021 140.444C262.587 128.305 263.794 122.144 258.021 114.944H279.521Z" fill="white"/>
<path d="M1093.58 553.604L1102.85 529.304H1108.4L1117.52 553.604H1111.76L1109.87 548.084H1101.23L1099.16 553.604H1093.58ZM1102.88 543.404H1108.37L1105.79 535.784H1105.67L1102.88 543.404Z" fill="#1FDB6A"/>
<path d="M1068.21 553.604V529.304H1077.06C1079.48 529.304 1081.59 529.794 1083.39 530.774C1085.19 531.754 1086.59 533.154 1087.59 534.974C1088.59 536.794 1089.09 538.954 1089.09 541.454C1089.09 543.934 1088.58 546.084 1087.56 547.904C1086.56 549.724 1085.16 551.134 1083.36 552.134C1081.56 553.114 1079.46 553.604 1077.06 553.604H1068.21ZM1073.73 548.804H1077.06C1078.46 548.804 1079.64 548.494 1080.6 547.874C1081.56 547.254 1082.29 546.394 1082.79 545.294C1083.31 544.194 1083.57 542.914 1083.57 541.454C1083.57 539.254 1083 537.484 1081.86 536.144C1080.74 534.784 1079.14 534.104 1077.06 534.104H1073.73V548.804Z" fill="#1FDB6A"/>
<path d="M1037.8 553.604L1047.07 529.304H1052.62L1061.74 553.604H1055.98L1054.09 548.084H1045.45L1043.38 553.604H1037.8ZM1047.1 543.404H1052.59L1050.01 535.784H1049.89L1047.1 543.404Z" fill="#1FDB6A"/>
<path d="M1030.01 553.604H1024.49V534.224H1017.62V529.304H1036.88V534.224H1030.01V553.604Z" fill="#1FDB6A"/>
<path d="M1003.19 554.084C1000.93 554.084 998.938 553.564 997.218 552.524C995.518 551.464 994.188 549.994 993.228 548.114C992.288 546.214 991.818 544.014 991.818 541.514C991.818 539.014 992.288 536.824 993.228 534.944C994.188 533.044 995.518 531.574 997.218 530.534C998.938 529.474 1000.93 528.944 1003.19 528.944C1005.05 528.944 1006.72 529.314 1008.2 530.054C1009.68 530.774 1010.89 531.804 1011.83 533.144C1012.79 534.464 1013.38 536.014 1013.6 537.794H1007.84C1007.7 536.654 1007.2 535.724 1006.34 535.004C1005.48 534.284 1004.43 533.924 1003.19 533.924C1002.01 533.924 1000.98 534.244 1000.1 534.884C999.218 535.504 998.538 536.384 998.058 537.524C997.578 538.644 997.338 539.974 997.338 541.514C997.338 543.034 997.578 544.364 998.058 545.504C998.538 546.644 999.218 547.534 1000.1 548.174C1000.98 548.794 1002.01 549.104 1003.19 549.104C1004.43 549.104 1005.48 548.744 1006.34 548.024C1007.2 547.304 1007.7 546.374 1007.84 545.234H1013.6C1013.38 547.014 1012.79 548.574 1011.83 549.914C1010.89 551.234 1009.68 552.264 1008.2 553.004C1006.72 553.724 1005.05 554.084 1003.19 554.084Z" fill="#1FDB6A"/>
<path d="M985.407 553.604H968.907V529.304H985.407V534.224H974.427V538.604H984.447V543.404H974.427V548.684H985.407V553.604Z" fill="#1FDB6A"/>
<path d="M959.923 553.604H954.103L943.903 538.304H943.783V553.604H938.623V529.304H944.143L954.643 545.054H954.763V529.304H959.923V553.604Z" fill="#1FDB6A"/>
<path d="M919.287 553.964C917.087 553.964 915.127 553.454 913.407 552.434C911.687 551.394 910.327 549.944 909.327 548.084C908.347 546.204 907.857 543.994 907.857 541.454C907.857 538.894 908.347 536.684 909.327 534.824C910.327 532.944 911.687 531.494 913.407 530.474C915.127 529.454 917.087 528.944 919.287 528.944C921.507 528.944 923.477 529.454 925.197 530.474C926.917 531.474 928.267 532.914 929.247 534.794C930.227 536.654 930.717 538.874 930.717 541.454C930.717 543.994 930.217 546.204 929.217 548.084C928.237 549.964 926.887 551.414 925.167 552.434C923.447 553.454 921.487 553.964 919.287 553.964ZM919.287 549.044C920.487 549.044 921.527 548.734 922.407 548.114C923.287 547.474 923.967 546.584 924.447 545.444C924.947 544.304 925.197 542.974 925.197 541.454C925.197 539.914 924.947 538.574 924.447 537.434C923.967 536.294 923.287 535.414 922.407 534.794C921.527 534.174 920.487 533.864 919.287 533.864C918.107 533.864 917.067 534.174 916.167 534.794C915.287 535.414 914.597 536.294 914.097 537.434C913.617 538.574 913.377 539.914 913.377 541.454C913.377 542.974 913.617 544.304 914.097 545.444C914.597 546.584 915.287 547.474 916.167 548.114C917.067 548.734 918.107 549.044 919.287 549.044Z" fill="#1FDB6A"/>
<path d="M891.616 554.084C889.356 554.084 887.366 553.564 885.646 552.524C883.946 551.464 882.616 549.994 881.656 548.114C880.716 546.214 880.246 544.014 880.246 541.514C880.246 539.014 880.716 536.824 881.656 534.944C882.616 533.044 883.946 531.574 885.646 530.534C887.366 529.474 889.356 528.944 891.616 528.944C893.476 528.944 895.146 529.314 896.626 530.054C898.106 530.774 899.316 531.804 900.256 533.144C901.216 534.464 901.806 536.014 902.026 537.794H896.266C896.126 536.654 895.626 535.724 894.766 535.004C893.906 534.284 892.856 533.924 891.616 533.924C890.436 533.924 889.406 534.244 888.526 534.884C887.646 535.504 886.966 536.384 886.486 537.524C886.006 538.644 885.766 539.974 885.766 541.514C885.766 543.034 886.006 544.364 886.486 545.504C886.966 546.644 887.646 547.534 888.526 548.174C889.406 548.794 890.436 549.104 891.616 549.104C892.856 549.104 893.906 548.744 894.766 548.024C895.626 547.304 896.126 546.374 896.266 545.234H902.026C901.806 547.014 901.216 548.574 900.256 549.914C899.316 551.234 898.106 552.264 896.626 553.004C895.146 553.724 893.476 554.084 891.616 554.084Z" fill="#1FDB6A"/>
<path d="M861.235 553.604H844.735V529.304H861.235V534.224H850.255V538.604H860.275V543.404H850.255V548.684H861.235V553.604Z" fill="#1FDB6A"/>
<path d="M816.526 553.604V529.304H828.136C829.696 529.304 831.066 529.574 832.246 530.114C833.426 530.634 834.346 531.394 835.006 532.394C835.686 533.374 836.026 534.544 836.026 535.904C836.026 537.144 835.726 538.254 835.126 539.234C834.526 540.194 833.566 540.864 832.246 541.244V541.364C833.506 541.364 834.446 541.684 835.066 542.324C835.706 542.944 836.026 543.884 836.026 545.144V553.604H830.506V544.604H822.046V553.604H816.526ZM822.046 539.684H827.776C828.616 539.684 829.296 539.444 829.816 538.964C830.356 538.484 830.626 537.814 830.626 536.954C830.626 536.074 830.356 535.404 829.816 534.944C829.296 534.464 828.616 534.224 827.776 534.224H822.046V539.684Z" fill="#1FDB6A"/>
<path d="M790.426 553.604V529.304H800.956C803.476 529.304 805.466 530.014 806.926 531.434C808.406 532.834 809.146 534.734 809.146 537.134C809.146 539.514 808.406 541.414 806.926 542.834C805.446 544.254 803.456 544.964 800.956 544.964H795.946V553.604H790.426ZM795.946 540.044H800.596C801.536 540.044 802.276 539.784 802.816 539.264C803.356 538.744 803.626 538.034 803.626 537.134C803.626 536.234 803.356 535.524 802.816 535.004C802.276 534.484 801.536 534.224 800.596 534.224H795.946V540.044Z" fill="#1FDB6A"/>
<path d="M755.009 553.604V529.304H762.269L768.179 545.624H768.299L774.179 529.304H781.409V553.604H775.889V537.464H775.769L770.339 553.604H765.719L760.289 537.464H760.169V553.604H755.009Z" fill="#1FDB6A"/>
<path d="M746.921 553.604H730.421V529.304H746.921V534.224H735.941V538.604H745.961V543.404H735.941V548.684H746.921V553.604Z" fill="#1FDB6A"/>
<path d="M713.781 553.964C711.781 553.964 710.031 553.634 708.531 552.974C707.031 552.294 705.851 551.334 704.991 550.094C704.131 548.854 703.641 547.394 703.521 545.714H709.101C709.321 546.934 709.851 547.864 710.691 548.504C711.551 549.144 712.651 549.464 713.991 549.464C715.151 549.464 716.041 549.224 716.661 548.744C717.301 548.264 717.621 547.604 717.621 546.764C717.621 546.124 717.411 545.584 716.991 545.144C716.591 544.704 715.931 544.384 715.011 544.184L710.841 543.194C708.601 542.674 706.941 541.834 705.861 540.674C704.781 539.514 704.241 538.054 704.241 536.294C704.241 534.794 704.611 533.494 705.351 532.394C706.111 531.294 707.171 530.444 708.531 529.844C709.891 529.244 711.491 528.944 713.331 528.944C715.151 528.944 716.751 529.264 718.131 529.904C719.531 530.524 720.641 531.414 721.461 532.574C722.281 533.714 722.741 535.084 722.841 536.684H717.261C717.021 535.584 716.531 534.744 715.791 534.164C715.051 533.564 714.121 533.264 713.001 533.264C711.961 533.264 711.141 533.494 710.541 533.954C709.941 534.414 709.641 535.014 709.641 535.754C709.641 536.314 709.841 536.814 710.241 537.254C710.661 537.674 711.271 537.974 712.071 538.154L716.451 539.144C718.651 539.644 720.291 540.474 721.371 541.634C722.471 542.794 723.021 544.354 723.021 546.314C723.021 548.674 722.211 550.544 720.591 551.924C718.971 553.284 716.701 553.964 713.781 553.964Z" fill="#1FDB6A"/>
<path d="M680.835 553.964C679.935 553.964 679.165 553.654 678.525 553.034C677.905 552.394 677.595 551.624 677.595 550.724C677.595 549.824 677.905 549.064 678.525 548.444C679.165 547.804 679.935 547.484 680.835 547.484C681.735 547.484 682.495 547.804 683.115 548.444C683.755 549.064 684.075 549.824 684.075 550.724C684.075 551.624 683.755 552.394 683.115 553.034C682.495 553.654 681.735 553.964 680.835 553.964Z" fill="white"/>
<path d="M648.024 553.604L657.294 529.304H662.844L671.964 553.604H666.204L664.314 548.084H655.674L653.604 553.604H648.024ZM657.324 543.404H662.814L660.234 535.784H660.114L657.324 543.404Z" fill="white"/>
<path d="M622.335 553.604V529.304H633.945C635.505 529.304 636.875 529.574 638.055 530.114C639.235 530.634 640.155 531.394 640.815 532.394C641.495 533.374 641.835 534.544 641.835 535.904C641.835 537.144 641.535 538.254 640.935 539.234C640.335 540.194 639.375 540.864 638.055 541.244V541.364C639.315 541.364 640.255 541.684 640.875 542.324C641.515 542.944 641.835 543.884 641.835 545.144V553.604H636.315V544.604H627.855V553.604H622.335ZM627.855 539.684H633.585C634.425 539.684 635.105 539.444 635.625 538.964C636.165 538.484 636.435 537.814 636.435 536.954C636.435 536.074 636.165 535.404 635.625 534.944C635.105 534.464 634.425 534.224 633.585 534.224H627.855V539.684Z" fill="white"/>
<path d="M593.528 553.604V529.304H602.378C604.798 529.304 606.908 529.794 608.708 530.774C610.508 531.754 611.908 533.154 612.908 534.974C613.908 536.794 614.408 538.954 614.408 541.454C614.408 543.934 613.898 546.084 612.878 547.904C611.878 549.724 610.478 551.134 608.678 552.134C606.878 553.114 604.778 553.604 602.378 553.604H593.528ZM599.048 548.804H602.378C603.778 548.804 604.958 548.494 605.918 547.874C606.878 547.254 607.608 546.394 608.108 545.294C608.628 544.194 608.888 542.914 608.888 541.454C608.888 539.254 608.318 537.484 607.178 536.144C606.058 534.784 604.458 534.104 602.378 534.104H599.048V548.804Z" fill="white"/>
<path d="M563.115 553.604L572.385 529.304H577.935L587.055 553.604H581.295L579.405 548.084H570.765L568.695 553.604H563.115ZM572.415 543.404H577.905L575.325 535.784H575.205L572.415 543.404Z" fill="white"/>
<path d="M547.236 553.964C545.396 553.964 543.716 553.634 542.196 552.974C540.696 552.294 539.496 551.254 538.596 549.854C537.696 548.454 537.246 546.644 537.246 544.424V529.304H542.886V543.524C542.886 545.124 543.266 546.384 544.026 547.304C544.806 548.224 545.926 548.684 547.386 548.684C548.886 548.684 550.006 548.194 550.746 547.214C551.506 546.234 551.886 545.014 551.886 543.554V529.304H557.406V544.484C557.406 546.604 556.966 548.364 556.086 549.764C555.206 551.164 553.996 552.214 552.456 552.914C550.936 553.614 549.196 553.964 547.236 553.964Z" fill="white"/>
<path d="M519.64 559.904C518.24 559.904 517.17 559.544 516.43 558.824C515.69 558.124 515.32 557.044 515.32 555.584V553.664C513.6 553.284 512.08 552.544 510.76 551.444C509.44 550.344 508.41 548.954 507.67 547.274C506.95 545.574 506.59 543.634 506.59 541.454C506.59 538.894 507.08 536.684 508.06 534.824C509.06 532.944 510.42 531.494 512.14 530.474C513.86 529.454 515.82 528.944 518.02 528.944C520.24 528.944 522.21 529.454 523.93 530.474C525.65 531.474 527 532.914 527.98 534.794C528.96 536.654 529.45 538.874 529.45 541.454C529.45 543.634 529.08 545.574 528.34 547.274C527.62 548.974 526.6 550.374 525.28 551.474C523.98 552.554 522.46 553.284 520.72 553.664V555.404H526.18V559.904H519.64ZM518.02 549.044C519.22 549.044 520.26 548.734 521.14 548.114C522.02 547.474 522.7 546.584 523.18 545.444C523.68 544.304 523.93 542.974 523.93 541.454C523.93 539.914 523.68 538.574 523.18 537.434C522.7 536.294 522.02 535.414 521.14 534.794C520.26 534.174 519.22 533.864 518.02 533.864C516.84 533.864 515.8 534.174 514.9 534.794C514.02 535.414 513.33 536.294 512.83 537.434C512.35 538.574 512.11 539.914 512.11 541.454C512.11 542.974 512.35 544.304 512.83 545.444C513.33 546.584 514.02 547.474 514.9 548.114C515.8 548.734 516.84 549.044 518.02 549.044Z" fill="white"/>
<path d="M465.254 553.604L474.524 529.304H480.074L489.194 553.604H483.434L481.544 548.084H472.904L470.834 553.604H465.254ZM474.554 543.404H480.044L477.464 535.784H477.344L474.554 543.404Z" fill="white"/>
<path d="M449.375 553.964C447.535 553.964 445.855 553.634 444.335 552.974C442.835 552.294 441.635 551.254 440.735 549.854C439.835 548.454 439.385 546.644 439.385 544.424V529.304H445.025V543.524C445.025 545.124 445.405 546.384 446.165 547.304C446.945 548.224 448.065 548.684 449.525 548.684C451.025 548.684 452.145 548.194 452.885 547.214C453.645 546.234 454.025 545.014 454.025 543.554V529.304H459.545V544.484C459.545 546.604 459.105 548.364 458.225 549.764C457.345 551.164 456.135 552.214 454.595 552.914C453.075 553.614 451.335 553.964 449.375 553.964Z" fill="white"/>
<path d="M422.781 553.964C420.781 553.964 419.031 553.634 417.531 552.974C416.031 552.294 414.851 551.334 413.991 550.094C413.131 548.854 412.641 547.394 412.521 545.714H418.101C418.321 546.934 418.851 547.864 419.691 548.504C420.551 549.144 421.651 549.464 422.991 549.464C424.151 549.464 425.041 549.224 425.661 548.744C426.301 548.264 426.621 547.604 426.621 546.764C426.621 546.124 426.411 545.584 425.991 545.144C425.591 544.704 424.931 544.384 424.011 544.184L419.841 543.194C417.601 542.674 415.941 541.834 414.861 540.674C413.781 539.514 413.241 538.054 413.241 536.294C413.241 534.794 413.611 533.494 414.351 532.394C415.111 531.294 416.171 530.444 417.531 529.844C418.891 529.244 420.491 528.944 422.331 528.944C424.151 528.944 425.751 529.264 427.131 529.904C428.531 530.524 429.641 531.414 430.461 532.574C431.281 533.714 431.741 535.084 431.841 536.684H426.261C426.021 535.584 425.531 534.744 424.791 534.164C424.051 533.564 423.121 533.264 422.001 533.264C420.961 533.264 420.141 533.494 419.541 533.954C418.941 534.414 418.641 535.014 418.641 535.754C418.641 536.314 418.841 536.814 419.241 537.254C419.661 537.674 420.271 537.974 421.071 538.154L425.451 539.144C427.651 539.644 429.291 540.474 430.371 541.634C431.471 542.794 432.021 544.354 432.021 546.314C432.021 548.674 431.211 550.544 429.591 551.924C427.971 553.284 425.701 553.964 422.781 553.964Z" fill="white"/>
</svg>
